<svg width="200px" height="198px" viewBox="0 0 200 198" version="1.1">
    <title>Analytics</title>
    <g id="Home" stroke="none" stroke-width="1" fill="none" fill-rule="evenodd" sketch:type="MSPage">
        <g id="Desktop" sketch:type="MSArtboardGroup" transform="translate(-181.000000, -1500.000000)">
            <g id="Buckets" sketch:type="MSLayerGroup" transform="translate(162.000000, 1500.000000)">
                <g id="Analytics" sketch:type="MSShapeGroup">
                    <g id="Oval-3-+-Group" transform="translate(19.000000, 0.000000)">
                        <ellipse id="Oval-3" opacity="0.351912313" fill="#C4CAD0" cx="99.6174242" cy="98.5773067" rx="99.6174242" ry="98.5773067"></ellipse>
                        <g id="Group" transform="translate(23.000000, 55.000000)" fill="#000000">
                            <path d="M134.099284,18.9686636 L95.2911818,63.7099679 C96.4438977,64.5346924 97.212375,65.3594169 98.1729716,66.5965036 L136.981074,21.8551993 C136.020477,21.0304748 135.059881,19.9995692 134.099284,18.9686636 L134.099284,18.9686636 Z" id="Shape"></path>
                            <path d="M59.5569886,42.2671308 C58.7885114,43.2980364 57.8279148,44.328942 56.8673182,45.1536665 L77.6162045,67.0088659 C78.3846818,65.9779602 79.3452784,64.9470546 80.305875,64.1223301 L59.5569886,42.2671308 L59.5569886,42.2671308 Z" id="Shape"></path>
                            <path d="M38.8081023,42.4733119 L18.2513352,64.9470546 C19.2119318,65.7717791 20.1725284,66.8026847 20.9410057,67.8335904 L41.689892,45.3598477 C40.5371761,44.5351232 39.5765795,43.7103987 38.8081023,42.4733119 L38.8081023,42.4733119 Z" id="Shape"></path>
                            <path d="M93.1778693,67.0088659 C92.98575,66.8026847 92.7936307,66.8026847 92.7936307,66.8026847 C91.4487955,65.9779602 89.9118409,65.3594169 88.182767,65.3594169 C87.0300511,65.3594169 85.6852159,65.565598 84.7246193,66.1841414 C84.1482614,66.3903225 83.7640227,66.8026847 83.3797841,67.0088659 L83.3797841,67.0088659 C82.2270682,67.8335904 81.4585909,68.864496 80.6901136,69.8954016 C79.729517,71.3386695 79.3452784,73.1942996 79.3452784,75.0499298 C79.3452784,78.9673712 81.6507102,82.4724503 84.9167386,83.9157182 C86.0694545,84.3280804 87.2221705,84.7404427 88.3748864,84.7404427 C90.2960795,84.7404427 92.0251534,84.1218993 93.3699886,83.0909937 C95.8675398,81.4415447 97.4044943,78.3488278 97.4044943,75.0499298 C97.4044943,72.9881185 96.8281364,71.1324884 95.8675398,69.4830394 C94.9069432,68.4521337 94.1384659,67.6274092 93.1778693,67.0088659 L93.1778693,67.0088659 Z" id="Shape"></path>
                            <path d="M55.522483,27.4220897 C53.7934091,25.5664596 51.6800966,24.535554 49.1825455,24.535554 C48.6061875,24.535554 48.0298295,24.535554 47.4534716,24.7417351 C46.3007557,24.9479162 45.1480398,25.5664596 44.1874432,26.185003 C43.2268466,26.8035463 42.4583693,27.834452 41.689892,28.8653576 C40.7292955,30.5148066 40.1529375,32.3704367 40.1529375,34.2260669 C40.1529375,36.2878781 40.7292955,38.1435083 41.689892,39.5867761 L41.689892,39.5867761 C42.26625,40.6176818 43.2268466,41.4424063 44.1874432,42.2671308 C44.3795625,42.2671308 44.3795625,42.4733119 44.5716818,42.4733119 C45.5322784,43.0918553 46.492875,43.5042175 47.4534716,43.7103987 C48.0298295,43.9165798 48.6061875,43.9165798 49.1825455,43.9165798 C51.1037386,43.9165798 52.8328125,43.2980364 54.1776477,42.2671308 L54.1776477,42.2671308 C54.7540057,41.8547685 55.1382443,41.4424063 55.522483,41.030044 C56.0988409,40.4115006 56.4830795,39.7929573 56.8673182,39.1744139 C57.6357955,37.731146 58.2121534,35.8755159 58.2121534,34.0198857 C58.2121534,31.5457122 57.0594375,29.0715387 55.522483,27.4220897 L55.522483,27.4220897 Z" id="Shape"></path>
                            <path d="M149.27671,2.26799238 C147.739756,1.23708675 146.010682,0.618543377 144.281608,0.618543377 C143.70525,0.618543377 143.128892,0.618543377 142.552534,0.824724503 C141.399818,1.03090563 140.247102,1.64944901 139.286506,2.26799238 C136.788955,3.91744139 135.252,7.01015828 135.252,10.3090563 C135.252,12.3708675 135.828358,14.2264977 136.788955,15.8759467 C137.365312,16.9068523 138.13379,17.7315768 139.094386,18.3501202 C139.286506,18.5563013 139.478625,18.5563013 139.478625,18.5563013 C140.247102,19.1748447 141.207699,19.5872069 142.168295,19.7933881 C142.744653,19.9995692 143.321011,19.9995692 143.897369,19.9995692 C145.818562,19.9995692 147.547636,19.3810258 148.892472,18.3501202 C151.390023,16.7006712 152.926977,13.6079543 152.926977,10.3090563 C152.926977,7.01015828 151.774261,3.91744139 149.27671,2.26799238 L149.27671,2.26799238 Z" id="Shape"></path>
                            <path d="M15.7537841,68.2459526 C15.7537841,68.0397715 15.5616648,68.0397715 15.3695455,68.0397715 C14.0247102,67.215047 12.4877557,66.5965036 10.7586818,66.5965036 C9.60596591,66.5965036 8.26113068,66.8026847 7.30053409,67.4212281 C4.03450568,68.864496 1.72907386,72.3695751 1.72907386,76.2870165 C1.72907386,80.2044579 4.03450568,83.7095371 7.30053409,85.1528049 C8.45325,85.5651672 9.60596591,85.9775294 10.7586818,85.9775294 C12.679875,85.9775294 14.4089489,85.3589861 15.7537841,84.3280804 C18.2513352,82.6786314 19.7882898,79.5859145 19.7882898,76.2870165 C19.7882898,74.2252053 19.2119318,72.3695751 18.2513352,70.9263073 C17.6749773,69.6892205 16.7143807,68.864496 15.7537841,68.2459526 L15.7537841,68.2459526 Z" id="Shape"></path>
                        </g>
                    </g>
                </g>
            </g>
        </g>
    </g>
</svg>