<?xml version="1.0" encoding="UTF-8" standalone="no"?>
<svg width="30px" height="24px" viewBox="0 0 30 24" version="1.1" xmlns="http://www.w3.org/2000/svg" xmlns:xlink="http://www.w3.org/1999/xlink" xmlns:sketch="http://www.bohemiancoding.com/sketch/ns">
    <!-- Generator: Sketch 3.3.3 (12081) - http://www.bohemiancoding.com/sketch -->
    <title>icon</title>
    <desc>Created with Sketch.</desc>
    <defs></defs>
    <g id="Dashboard" stroke="none" stroke-width="1" fill="none" fill-rule="evenodd" sketch:type="MSPage">
        <g id="Desktop" sketch:type="MSArtboardGroup" transform="translate(-31.000000, -180.000000)" stroke="#FFFFFF">
            <g id="Sidebar" sketch:type="MSLayerGroup" transform="translate(0.000000, 75.000000)">
                <g id="Classrooms" transform="translate(31.000000, 106.000000)" sketch:type="MSShapeGroup">
                    <g id="icon">
                        <g id="Group">
                            <path d="M24.263,15.9351077 L26.2726667,14.8682769 L26.2726667,10.1579077 L24.263,11.2474154 L24.263,15.9351077 Z" id="Shape"></path>
                            <path d="M14.9996667,16.1388615 C14.8406667,16.1388615 14.683,16.0996 14.5383333,16.0214154 L4.705,10.6882769 L4.705,15.3648 L14.9996667,20.8512615 L20.839,17.7519692 L20.839,13.1048923 L15.4606667,16.0214154 C15.3163333,16.0996 15.158,16.1388615 14.9996667,16.1388615 L14.9996667,16.1388615 Z" id="Shape"></path>
                            <path d="M22.8976667,10.3657231 L17.178,7.30230769 C17.196,6.68529231 16.8846667,6.08113846 16.3126667,5.76941538 C16.064,5.63335385 15.7956667,5.56870769 15.532,5.56870769 C14.9416667,5.56870769 14.37,5.89058462 14.072,6.45547692 C13.6393333,7.27286154 13.9426667,8.29196923 14.7476667,8.73095385 C14.994,8.86498462 15.2586667,8.92827692 15.5193333,8.92827692 C15.864,8.92827692 16.2016667,8.81827692 16.4843333,8.61486154 L21.8173333,11.4680923 L21.8173333,21.1203385 C21.8173333,21.5315692 22.1456667,21.8652923 22.551,21.8652923 C22.9563333,21.8652923 23.2843333,21.5315692 23.2843333,21.1203385 L23.2843333,11.022 C23.2846667,10.7475077 23.1363333,10.4953538 22.8976667,10.3657231 L22.8976667,10.3657231 Z" id="Shape" fill="#FFFFFF"></path>
                            <path d="M0.303333333,7.17504615 L14.9996667,15.1454769 L29.6963333,7.17538462 L14.9996667,0.198 L0.303333333,7.17504615 Z" id="Shape"></path>
                        </g>
                    </g>
                </g>
            </g>
        </g>
    </g>
</svg>