<svg width="200px" height="198px" viewBox="0 0 200 198" version="1.1">
    <title>Ear Trainer</title>
    <g id="Home" stroke="none" stroke-width="1" fill="none" fill-rule="evenodd" sketch:type="MSPage">
        <g id="Desktop" sketch:type="MSArtboardGroup" transform="translate(-820.000000, -1501.000000)">
            <g id="Buckets" sketch:type="MSLayerGroup" transform="translate(162.000000, 1500.000000)">
                <g id="Ear-Trainer" transform="translate(639.000000, 1.000000)" sketch:type="MSShapeGroup">
                    <g id="Oval-3-Copy-2-+-Shape" transform="translate(19.000000, 0.000000)">
                        <path d="M99.6174242,197.306604 C154.634608,197.306604 199.234848,153.138016 199.234848,98.6533019 C199.234848,44.1685877 154.634608,0 99.6174242,0 C44.60024,0 0,44.1685877 0,98.6533019 C0,153.138016 44.60024,197.306604 99.6174242,197.306604 Z" id="Oval-3-Copy-2" opacity="0.351912313" fill="#C4CAD0"></path>
                        <path d="M172.42585,118.666131 C172.370563,115.272515 170.063059,110.380437 166.591619,107.778885 L166.591619,96.1971014 C166.591619,94.7658523 165.381125,93.6008208 163.853459,93.4914344 C162.050812,82.1705966 158.382958,71.4520432 151.643766,62.1621031 C151.629217,60.0310444 150.095731,57.0499344 148.597163,55.377508 C135.611997,40.4113341 118.26498,35 99.7467521,35 C81.229979,35 63.881507,40.4113341 50.9167105,55.3537856 C49.188265,57.2858401 47.8555578,60.2603606 47.8482832,62.1634211 C41.1120013,71.4520432 37.4470566,82.1705966 35.6429552,93.4927523 C34.1138337,93.6008208 32.901885,94.7658523 32.901885,96.1984193 L32.901885,107.778885 C29.4304447,110.381755 27.1229408,115.273833 27.0676538,118.667449 C26.9774487,125.797336 26.9774487,133.026067 27.0676538,140.163861 C27.1476744,145.144239 31.6506534,149.934838 36.9145557,150.62674 C37.2899252,150.675503 37.6929382,150.699225 38.1221397,150.699225 C40.5751357,150.699225 44.1251417,149.828088 47.1426468,148.278227 L47.1426468,156.959293 C47.1644706,158.838631 48.748879,160.70479 50.8134112,161.293895 C53.1747471,161.976572 55.6117389,162.323182 58.0560054,162.323182 L58.0574603,162.323182 C61.1069736,162.323182 64.156487,161.785475 67.12016,160.732466 C69.1003068,160.027385 70.5872356,157.999123 70.5872356,156.36228 L70.5872356,97.1130481 L70.6265184,97.1117302 C70.6061495,95.3259636 69.0988519,93.4466254 67.1230699,92.7468158 C61.7791469,90.8411195 56.104957,90.6487048 50.8221407,92.1814329 C48.7445142,92.7758098 47.1630156,94.639333 47.1411918,96.5186712 L47.1411918,107.138381 C46.2304116,106.615172 45.1668647,106.186851 44.0014734,105.924587 L44.0014734,96.1997372 C44.0014734,95.349686 43.5679071,94.5997958 42.9030084,94.0989904 C44.3826626,84.0828825 47.4452702,74.6308396 53.3580671,66.4716654 C54.9963076,65.9471376 58.5899612,64.783424 60.1234474,63.0938648 C71.3379745,50.3483675 85.4099655,46.1600529 99.7467521,46.1600529 C114.082084,46.1600529 128.15553,50.3483675 139.391881,63.1162692 C140.894813,64.7755166 144.472463,65.9352764 146.133982,66.4703475 C152.043869,74.6282038 155.107932,84.0802466 156.591951,94.0976725 C155.925597,94.5971599 155.492031,95.348368 155.492031,96.1984193 L155.492031,105.923269 C154.326639,106.186851 153.264547,106.613854 152.352312,107.137063 L152.352312,96.5173533 C152.331943,94.6380151 150.747535,92.7744919 148.671363,92.180115 C143.390002,90.6473869 137.714357,90.8398016 132.371889,92.7454979 C130.396107,93.4453075 128.88881,95.3246457 128.869896,97.1104123 L128.909178,97.1117302 L128.909178,156.359644 C128.909178,157.996487 130.394652,160.024749 132.374799,160.72983 C135.338472,161.78284 138.38944,162.320546 141.437499,162.320546 C143.88322,162.320546 146.320212,161.972618 148.681548,161.29126 C150.747535,160.702154 152.331943,158.835995 152.350857,156.956657 L152.350857,148.275591 C155.366908,149.825452 158.918368,150.69659 161.371364,150.69659 C161.799111,150.69659 162.202124,150.672867 162.578948,150.624105 C167.841396,149.932202 172.344375,145.141603 172.42585,140.161226 C172.5146,133.024749 172.5146,125.797336 172.42585,118.666131 L172.42585,118.666131 Z" id="Shape" fill="#000000"></path>
                    </g>
                </g>
            </g>
        </g>
    </g>
</svg>