<?xml version="1.0" encoding="UTF-8" standalone="no"?>
<svg width="26px" height="21px" viewBox="0 0 26 21" version="1.1" xmlns="http://www.w3.org/2000/svg" xmlns:xlink="http://www.w3.org/1999/xlink" xmlns:sketch="http://www.bohemiancoding.com/sketch/ns">
    <!-- Generator: Sketch 3.3.3 (12081) - http://www.bohemiancoding.com/sketch -->
    <title>icon copy</title>
    <desc>Created with Sketch.</desc>
    <defs></defs>
    <g id="Dashboard" stroke="none" stroke-width="1" fill="none" fill-rule="evenodd" sketch:type="MSPage">
        <g id="Desktop" sketch:type="MSArtboardGroup" transform="translate(-33.000000, -305.000000)" fill="#FFFFFF">
            <g id="Sidebar" sketch:type="MSLayerGroup" transform="translate(0.000000, 75.000000)">
                <g id="icon-copy" transform="translate(33.000000, 230.000000)" sketch:type="MSShapeGroup">
                    <path d="M25.2868571,0 L0.713142857,0 C0.319428571,0 0,0.323313806 0,0.723499426 L0,16.8891897 C0,17.2803316 0.319428571,17.6126892 0.713142857,17.6126892 L9.47885714,17.6126892 C9.87257143,17.6126892 10.192,17.9367566 10.192,18.3278985 L10.192,20.5368327 C10.192,20.9362646 10.4817143,21.109603 10.8308571,20.9279745 L12.3685714,20.1065012 C12.7177143,19.9256264 13.2897143,19.9256264 13.6388571,20.1065012 L14.612,20.6272701 L15.1765714,20.9279745 C15.496,21.0945301 15.7634286,20.9581204 15.8005714,20.6272701 C15.808,20.5971243 15.808,20.5669785 15.808,20.5368327 L15.808,18.3278985 C15.808,17.9367566 16.1274286,17.6126892 16.5211429,17.6126892 L25.2868571,17.6126892 C25.6805714,17.6126892 26,17.2803316 26,16.8891897 L26,0.723499426 C26,0.323313806 25.6805714,0 25.2868571,0 L25.2868571,0 Z M2.71695295,16 C2.32860344,16 2,15.6788489 2,15.2985767 L2,2.70069339 C2,2.31458214 2.32860344,2 2.71695295,2 L11.2830471,2 C11.6863331,2 12,2.31458214 12,2.70069339 L12,15.2985767 C12,15.4963766 11.9103809,15.6854179 11.7684839,15.809499 C11.6415235,15.9262812 11.4772218,16 11.2830471,16 L2.71695295,16 L2.71695295,16 Z M24,15.2985767 C24,15.6788489 23.6786248,16 23.2825112,16 L14.7100149,16 C14.3139013,16 14,15.6788489 14,15.2985767 L14,2.70069339 C14,2.31458214 14.3139013,2 14.7100149,2 L23.2825112,2 C23.6786248,2 24,2.31458214 24,2.70069339 L24,15.2985767 L24,15.2985767 Z" id="Fill-1"></path>
                    <path d="M10,10.4973822 C10,10.6492147 9.89256198,10.7853403 9.72727273,10.8743455 C9.58677686,10.9534031 9.41322314,11 9.21487603,11 L5.79338843,11 C5.3553719,11 5,10.7753927 5,10.4973822 C5,10.2989529 5.18181818,10.1256545 5.45454545,10.0471204 C5.55371901,10.0157068 5.66942149,10 5.79338843,10 L9.21487603,10 C9.41322314,10 9.58677686,10.0418848 9.72727273,10.1256545 C9.89256198,10.2099476 10,10.3455497 10,10.4973822" id="Fill-2"></path>
                    <path d="M10,7.4973822 C10,7.64921466 9.89256198,7.78534031 9.72727273,7.87434555 C9.58677686,7.95287958 9.40495868,8 9.20661157,8 L5.78512397,8 C5.3553719,8 5,7.77539267 5,7.4973822 C5,7.21989529 5.3553719,7 5.78512397,7 L9.20661157,7 C9.40495868,7 9.58677686,7.04764398 9.72727273,7.12565445 C9.89256198,7.21465969 10,7.34554974 10,7.4973822" id="Fill-3"></path>
                    <path d="M23,10.4973822 C23,10.6492147 22.8927393,10.7905759 22.7194719,10.8801047 C22.5792079,10.9534031 22.4059406,11 22.2079208,11 L18.7920792,11 C18.5940594,11 18.4207921,10.9534031 18.2805281,10.8801047 C18.1072607,10.7905759 18,10.6492147 18,10.4973822 C18,10.3507853 18.0990099,10.2198953 18.2557756,10.1361257 C18.3217822,10.0947644 18.3877888,10.0628272 18.470297,10.0471204 C18.5693069,10.0157068 18.6765677,10 18.7920792,10 L22.2079208,10 C22.4059406,10 22.5792079,10.0418848 22.7194719,10.1209424 C22.8927393,10.2099476 23,10.3455497 23,10.4973822" id="Fill-4"></path>
                    <path d="M23,7.4973822 C23,7.64921466 22.892562,7.78534031 22.7272727,7.87434555 C22.5867769,7.95287958 22.4132231,8 22.214876,8 L18.7933884,8 C18.5702479,8 18.3719008,7.94293194 18.231405,7.8539267 C18.0909091,7.7591623 18,7.63350785 18,7.4973822 C18,7.33560209 18.1157025,7.19371728 18.3057851,7.10471204 C18.4380165,7.03664921 18.6115702,7 18.7933884,7 L22.214876,7 C22.4132231,7 22.5867769,7.04764398 22.7272727,7.12565445 C22.892562,7.21465969 23,7.34554974 23,7.4973822" id="Fill-5"></path>
                </g>
            </g>
        </g>
    </g>
</svg>