<svg width="201px" height="198px" viewBox="0 0 201 198" version="1.1">
    <title>Notation</title>
    <g id="Home" stroke="none" stroke-width="1" fill="none" fill-rule="evenodd" sketch:type="MSPage">
        <g id="Desktop" sketch:type="MSArtboardGroup" transform="translate(-499.000000, -1501.000000)">
            <g id="Buckets" sketch:type="MSLayerGroup" transform="translate(162.000000, 1500.000000)">
                <g id="Exercises" transform="translate(319.000000, 1.000000)" sketch:type="MSShapeGroup">
                    <g id="Group" transform="translate(18.000000, 0.000000)">
                        <g>
                            <ellipse id="Oval-3-Copy" opacity="0.351912313" fill="#C4CAD0" cx="100.549242" cy="98.6533019" rx="99.6174242" ry="98.6533019"></ellipse>
                            <path d="M167.72132,44.9068698 L104.744048,65.2946528 L104.744048,136.256048 C101.997039,135.036761 98.3413582,134.843425 94.7066699,135.983684 C88.4209383,137.955148 84.6003171,143.14982 86.17175,147.586671 C87.7431829,152.023522 94.1113847,154.020388 100.397116,152.048924 C106.008091,150.289143 109.64278,145.960955 109.242424,141.895252 L109.242424,78.0153198 L163.222944,60.5205218 L163.222944,106.640348 C160.471437,105.404127 156.796263,105.202323 153.143581,106.348228 C146.85785,108.319691 143.037228,113.514363 144.608661,117.951214 C146.180094,122.388066 152.548296,124.384931 158.834028,122.413467 C164.11962,120.755293 167.647847,116.818011 167.707825,112.969635 L167.72132,112.969635 L167.72132,44.9068698 L167.72132,44.9068698 Z" id="Shape" fill="#000000"></path>
                            <path d="M53.7624459,45.5574386 L53.7624459,106.239564 C50.9599573,104.980763 47.0433707,104.869277 43.3217137,106.037761 C36.9205238,108.045916 33.0279286,113.33655 34.6278512,117.855252 C36.2277738,122.373954 42.7144329,124.408922 49.1171223,122.400767 C54.5001797,120.711546 58.1843501,116.702292 58.2443285,112.781944 L58.2608225,112.781944 L58.2608225,65.3144098 C58.2608225,65.3144098 77.6428279,70.5937547 83.7516234,90.7162298 C83.7516234,67.7191154 62.7591991,63.9031975 53.7624459,45.5574386 L53.7624459,45.5574386 Z" id="Shape" fill="#000000"></path>
                            <path d="M81.3869767,144.342294 L28.271645,144.342294 L28.271645,147.164719 L81.4664481,147.164719 C81.3090049,146.22344 81.2850135,145.279339 81.3869767,144.342294 L81.3869767,144.342294 Z" id="Shape" fill="#000000"></path>
                            <path d="M172.219697,147.164719 L172.219697,144.342294 L113.590855,144.342294 C113.418417,145.301919 113.126023,146.248842 112.704675,147.164719 L172.219697,147.164719 L172.219697,147.164719 Z" id="Shape" fill="#000000"></path>
                            <path d="M32.8869794,123.174111 L28.271645,123.174111 L28.271645,125.996535 L37.0734686,125.996535 C35.4525536,125.289518 34.032566,124.33695 32.8869794,123.174111 L32.8869794,123.174111 Z" id="Shape" fill="#000000"></path>
                            <path d="M172.219697,125.996535 L172.219697,123.174111 L166.568236,123.174111 C165.101766,124.308725 163.401379,125.272583 161.504564,125.996535 L172.219697,125.996535 L172.219697,125.996535 Z" id="Shape" fill="#000000"></path>
                            <path d="M142.831802,123.174111 L113.740801,123.174111 L113.740801,125.996535 L146.961312,125.996535 C145.352393,125.29234 143.965393,124.331305 142.831802,123.174111 L142.831802,123.174111 Z" id="Shape" fill="#000000"></path>
                            <path d="M56.8963149,123.174111 C55.4028539,124.307314 53.6739778,125.271172 51.7486726,125.996535 L100.245671,125.996535 L100.245671,123.174111 L56.8963149,123.174111 L56.8963149,123.174111 Z" id="Shape" fill="#000000"></path>
                            <rect id="Rectangle-path" fill="#000000" x="62.7591991" y="102.005928" width="37.4864719" height="2.82242444"></rect>
                            <path d="M41.9542073,102.005928 L28.271645,102.005928 L28.271645,104.828352 L36.1438041,104.828352 C37.8022056,103.664102 39.7350081,102.700244 41.9002267,102.02004 C41.9182202,102.014395 41.9362137,102.011572 41.9542073,102.005928 L41.9542073,102.005928 Z" id="Shape" fill="#000000"></path>
                            <path d="M113.740801,104.828352 L146.461992,104.828352 C148.004936,103.805223 149.762301,102.947206 151.720595,102.331918 C152.116452,102.207731 152.515308,102.106124 152.914164,102.005928 L113.740801,102.005928 L113.740801,104.828352 L113.740801,104.828352 Z" id="Shape" fill="#000000"></path>
                            <path d="M73.630276,80.8377442 L62.7591991,80.8377442 L62.7591991,83.6601686 L75.6470482,83.6601686 C75.0067792,82.6553855 74.3320227,81.7155182 73.630276,80.8377442 L73.630276,80.8377442 Z" id="Shape" fill="#000000"></path>
                            <rect id="Rectangle-path" fill="#000000" x="28.271645" y="80.8377442" width="20.9924242" height="2.82242444"></rect>
                            <path d="M113.740801,83.6601686 L158.724567,83.6601686 L158.724567,80.8377442 L114.349581,80.8377442 L113.740801,81.0353139 L113.740801,83.6601686 Z" id="Shape" fill="#000000"></path>
                            <path d="M87.576743,83.6601686 L100.245671,83.6601686 L100.245671,80.8377442 L86.9034859,80.8377442 C87.1658912,81.7437424 87.3878111,82.6878434 87.576743,83.6601686 L87.576743,83.6601686 Z" id="Shape" fill="#000000"></path>
                            <path d="M74.3560141,62.4919853 L101.388259,62.4919853 C101.890577,61.9585471 102.530846,61.5351834 103.282075,61.2910437 L108.291767,59.6695609 L71.2851223,59.6695609 C71.2911201,59.6752057 71.297118,59.6794393 71.3016163,59.6850842 C72.3212484,60.6122506 73.3438793,61.5436507 74.3560141,62.4919853 L74.3560141,62.4919853 Z" id="Shape" fill="#000000"></path>
                            <rect id="Rectangle-path" fill="#000000" x="28.271645" y="59.6695609" width="20.9924242" height="2.82242444"></rect>
                        </g>
                    </g>
                </g>
            </g>
        </g>
    </g>
</svg>