<?xml version="1.0" encoding="UTF-8" standalone="no"?>
<svg width="26px" height="32px" viewBox="0 0 26 32" version="1.1" xmlns="http://www.w3.org/2000/svg" xmlns:xlink="http://www.w3.org/1999/xlink" xmlns:sketch="http://www.bohemiancoding.com/sketch/ns">
    <!-- Generator: Sketch 3.3.3 (12081) - http://www.bohemiancoding.com/sketch -->
    <title>Icon</title>
    <desc>Created with Sketch.</desc>
    <defs></defs>
    <g id="Dashboard" stroke="none" stroke-width="1" fill="none" fill-rule="evenodd" sketch:type="MSPage">
        <g id="Desktop" sketch:type="MSArtboardGroup" transform="translate(-34.000000, -234.000000)" stroke="#FFFFFF">
            <g id="Sidebar" sketch:type="MSLayerGroup" transform="translate(0.000000, 75.000000)">
                <g id="Students" transform="translate(35.000000, 160.000000)" sketch:type="MSShapeGroup">
                    <g id="Icon">
                        <g id="Group">
                            <path d="M18.4234146,7.88338235 C18.936,3.38529412 16.8194634,0 12.0000488,0 C7.18141463,0 5.06370732,3.38504902 5.57668293,7.88333333 C5.99326829,11.5345098 7.5822439,15.9801471 12.0000488,15.9798039 C16.4177561,15.9795588 18.0072195,11.5346078 18.4234146,7.88338235 Z" id="Shape"></path>
                            <path d="M23.9502927,26.5641176 C23.902,25.1472549 23.7367805,23.7239706 23.4907317,22.3291667 C23.1926341,20.6395098 22.8132195,18.162402 21.3452195,17.0612745 C20.4962439,16.4246078 19.396878,16.2157353 18.4249756,15.8318137 C17.9519512,15.645049 17.5281951,15.4595588 17.1304878,15.2484314 C15.7881463,16.7276471 14.0378049,17.5014706 11.9994634,17.5015686 C9.96170732,17.5015686 8.21156098,16.7277451 6.86936585,15.2484314 C6.47165854,15.4596078 6.04790244,15.6451471 5.57487805,15.8318137 C4.60297561,16.2157353 3.50360976,16.4245588 2.65473171,17.0612745 C1.18663415,18.162402 0.807268293,20.6395098 0.509219512,22.3291667 C0.263121951,23.7239706 0.0978536585,25.1472549 0.0496097561,26.5641176 C0.0122439024,27.6615196 0.551463415,27.8153431 1.46507317,28.1466667 C2.60912195,28.5612745 3.7902439,28.8690686 4.97926829,29.1213725 C7.27570732,29.6086765 9.64282927,29.9832353 11.9998049,30 C14.3567805,29.9831863 16.7239024,29.6086765 19.0203415,29.1213725 C20.2093659,28.8691667 21.3905854,28.5613725 22.5345366,28.1466667 C23.4484878,27.8154412 23.9876585,27.6616176 23.9502927,26.5641176 L23.9502927,26.5641176 Z" id="Shape"></path>
                        </g>
                    </g>
                </g>
            </g>
        </g>
    </g>
</svg>